<mxfile host="app.diagrams.net" modified="2023-09-03T19:00:42.031Z" agent="Mozilla/5.0 (X11; Linux x86_64; rv:109.0) Gecko/20100101 Firefox/117.0" etag="AWYKplpsx7yL_ObyTckY" version="21.6.8" type="device">
  <diagram name="Page-1" id="TeTRWKz1ku55e-eO3Egx">
    <mxGraphModel dx="1980" dy="1112" grid="1" gridSize="10" guides="1" tooltips="1" connect="1" arrows="1" fold="1" page="1" pageScale="1" pageWidth="3300" pageHeight="4681" math="0" shadow="0">
      <root>
        <mxCell id="0" />
        <mxCell id="1" parent="0" />
        <mxCell id="ypbmJgtytMYSuKpdegk9-10" style="edgeStyle=orthogonalEdgeStyle;rounded=0;orthogonalLoop=1;jettySize=auto;html=1;exitX=1;exitY=0.5;exitDx=0;exitDy=0;" edge="1" parent="1" source="ypbmJgtytMYSuKpdegk9-3" target="ypbmJgtytMYSuKpdegk9-7">
          <mxGeometry relative="1" as="geometry" />
        </mxCell>
        <mxCell id="ypbmJgtytMYSuKpdegk9-3" value="Controlador de carga" style="rounded=0;whiteSpace=wrap;html=1;" vertex="1" parent="1">
          <mxGeometry x="660" y="170" width="120" height="60" as="geometry" />
        </mxCell>
        <mxCell id="ypbmJgtytMYSuKpdegk9-7" value="Bateria" style="rounded=0;whiteSpace=wrap;html=1;" vertex="1" parent="1">
          <mxGeometry x="910" y="170" width="120" height="60" as="geometry" />
        </mxCell>
        <mxCell id="ypbmJgtytMYSuKpdegk9-9" style="edgeStyle=orthogonalEdgeStyle;rounded=0;orthogonalLoop=1;jettySize=auto;html=1;exitX=1;exitY=0.5;exitDx=0;exitDy=0;entryX=0;entryY=0.5;entryDx=0;entryDy=0;" edge="1" parent="1" source="ypbmJgtytMYSuKpdegk9-8" target="ypbmJgtytMYSuKpdegk9-3">
          <mxGeometry relative="1" as="geometry" />
        </mxCell>
        <mxCell id="ypbmJgtytMYSuKpdegk9-8" value="Painel solar" style="rounded=0;whiteSpace=wrap;html=1;" vertex="1" parent="1">
          <mxGeometry x="410" y="170" width="120" height="60" as="geometry" />
        </mxCell>
      </root>
    </mxGraphModel>
  </diagram>
</mxfile>
